<svg width="250" height="250" viewBox="0 0 250 250" fill="none" xmlns="http://www.w3.org/2000/svg">
<path fill-rule="evenodd" clip-rule="evenodd" d="M48.2101 125C87.0449 132.523 117.6 163.49 125.022 202.85C132.444 163.49 162.999 132.523 201.834 125C162.999 117.477 132.444 86.5097 125.022 47.1502C117.6 86.5097 87.0449 117.477 48.2101 125ZM33.2955 123.312C82.2879 121.53 121.598 81.6884 123.356 32.034H126.688C128.446 81.6884 167.756 121.53 216.748 123.312V126.688C167.756 128.47 128.446 168.312 126.688 217.966H123.356C121.598 168.312 82.2879 128.47 33.2955 126.688V123.312Z" fill="white"/>
<path fill-rule="evenodd" clip-rule="evenodd" d="M126.171 32.034L125 0L123.829 32.034H123.313L122.114 65.8903C117.603 94.8949 94.9455 117.73 66.2676 122.111L33.252 123.312V123.768L0 125L33.252 126.232V126.688L66.2671 127.889C94.9452 132.27 117.603 155.105 122.114 184.11L123.313 217.966H123.829L125 250L126.171 217.966H126.644L127.83 184.478C132.206 155.294 154.941 132.281 183.746 127.887L216.705 126.688V126.233L250 125L216.705 123.767V123.312L183.746 122.113C154.94 117.718 132.206 94.7061 127.83 65.5222L126.644 32.034H126.171ZM126.171 32.034H123.829L122.886 57.8055C122.786 60.5456 122.525 63.2437 122.114 65.8903L120.192 120.149L66.2676 122.111C63.7875 122.49 61.2625 122.731 58.7003 122.826L33.252 123.768V126.232L58.7003 127.174C61.2623 127.269 63.7872 127.51 66.2671 127.889L120.192 129.851L122.114 184.11C122.525 186.756 122.786 189.454 122.886 192.195L123.829 217.966H126.171L127.114 192.194C127.209 189.581 127.451 187.006 127.83 184.478L129.764 129.851L183.746 127.887C186.222 127.509 188.742 127.269 191.3 127.174L216.705 126.233V123.767L191.3 122.826C188.742 122.731 186.222 122.491 183.746 122.113L129.764 120.149L127.83 65.5222C127.451 62.9936 127.209 60.4187 127.114 57.8055L126.171 32.034ZM123.412 123.413L124.978 79.1882L126.545 123.413L170.179 125L126.545 126.587L124.978 170.812L123.412 126.587L79.7775 125L123.412 123.413Z" fill="white"/>
</svg>
