<svg width="100" height="100" viewBox="0 0 100 100" fill="none" xmlns="http://www.w3.org/2000/svg">
<path d="M41.484 20.831L47.597 26.819L55.956 24.98L52.148 32.645L56.48 40.025L48.015 38.774L42.334 45.174L40.907 36.736L33.065 33.312L40.649 29.348L41.484 20.831ZM30.214 45.344L36.328 51.332L44.686 49.494L40.879 57.158L45.211 64.538L36.745 63.287L31.064 69.687L29.639 61.249L21.796 57.825L29.38 53.861L30.214 45.344ZM64.299 32.811L70.412 38.798L78.771 36.959L74.963 44.624L79.295 52.004L70.829 50.753L65.147 57.152L63.721 48.714L55.878 45.29L63.463 41.326L64.299 32.811ZM52.492 58.948L58.605 64.937L66.963 63.097L63.157 70.761L67.487 78.142L59.022 76.89L53.341 83.29L51.914 74.852L44.072 71.428L51.656 67.463L52.492 58.948ZM50 100C22.43 100 0 77.57 0 50C0 22.43 22.43 0 50 0C77.57 0 100 22.43 100 50C100 77.57 77.57 100 50 100ZM50 4.706C25.025 4.706 4.706 25.025 4.706 50C4.706 74.975 25.025 95.294 50 95.294C74.975 95.294 95.294 74.975 95.294 50C95.294 25.025 74.975 4.706 50 4.706ZM17.584 29.235C18.518 25.878 20.541 22.81 22.992 20.303C24.222 19.038 25.598 17.928 27.02 16.901C28.448 15.88 29.921 14.925 31.476 14.126C34.563 12.491 37.852 11.287 41.219 10.535C44.583 9.783 48.031 9.477 51.424 9.69C52.153 9.736 52.706 10.364 52.66 11.092C52.622 11.709 52.166 12.2 51.586 12.309L51.574 12.311C48.421 12.901 45.363 13.691 42.424 14.745C39.488 15.8 36.676 17.114 34.048 18.695C32.745 19.504 31.461 20.332 30.254 21.263C29.042 22.187 27.91 23.2 26.787 24.218C24.53 26.273 22.469 28.419 20.163 30.765C19.565 31.373 18.588 31.382 17.979 30.784C17.564 30.377 17.428 29.793 17.572 29.27L17.584 29.235ZM12.725 43.547C12.463 43.147 12.348 42.768 12.25 42.392C12.181 41.999 12.171 41.604 12.202 41.219C12.294 40.469 12.506 39.744 12.728 39.025C12.961 38.309 13.261 37.613 13.604 36.939C13.957 36.268 14.367 35.621 14.881 35.03C15.299 34.55 16.075 34.5 16.555 34.917C16.811 35.139 17 35.447 17 35.759V35.797C17 36.544 16.908 37.248 16.826 37.938C16.746 38.628 16.632 39.307 16.51 39.975C16.388 40.643 16.277 41.314 16.091 41.965C15.998 42.283 15.854 42.591 15.661 42.902C15.458 43.233 15.233 43.561 14.866 43.867C14.251 44.379 13.338 44.295 12.826 43.681C12.79 43.638 12.755 43.593 12.725 43.547ZM90.622 54.438C91.079 57.311 90.616 60.282 89.699 63.014C89.238 64.389 88.622 65.702 87.962 66.985C87.293 68.264 86.588 69.524 85.77 70.708C84.166 73.096 82.296 75.287 80.213 77.228C78.131 79.166 75.835 80.859 73.358 82.193C72.712 82.541 71.909 82.298 71.561 81.654C71.28 81.131 71.385 80.501 71.783 80.095L71.793 80.085C73.655 78.192 75.407 76.265 77.009 74.244C78.609 72.223 80.058 70.115 81.328 67.922C81.944 66.814 82.565 65.713 83.1 64.571C83.641 63.43 84.106 62.262 84.592 61.104C85.569 58.772 86.462 56.473 87.655 53.989C88.032 53.208 88.968 52.879 89.75 53.255C90.229 53.484 90.537 53.926 90.618 54.412L90.622 54.438Z" 
    fill="white"/>
</svg>
