<svg width="500" height="500" viewBox="0 0 500 500" fill="none" xmlns="http://www.w3.org/2000/svg">
<g opacity="0.2">
<path fill-rule="evenodd" clip-rule="evenodd" d="M250 67.8288L245.303 105.399C236.096 179.054 179.552 237.879 106.332 250C179.552 262.121 236.096 320.946 245.303 394.601L250 432.171L254.697 394.601C263.904 320.946 320.448 262.121 393.668 250C320.448 237.879 263.904 179.054 254.697 105.399L250 67.8288ZM239.467 104.67L247.082 43.7529L252.919 43.7529L260.534 104.67C269.423 175.783 324.044 232.57 394.758 244.218L412.243 247.098V252.902L394.758 255.782C324.044 267.43 269.423 324.217 260.534 395.33L252.919 456.247H247.082L239.467 395.331C230.577 324.217 175.956 267.43 105.242 255.782L87.7573 252.902L87.7573 247.098L105.242 244.218C175.956 232.57 230.577 175.783 239.467 104.67Z" fill="white"/>
<path fill-rule="evenodd" clip-rule="evenodd" d="M250 494.118C384.822 494.118 494.118 384.822 494.118 250C494.118 115.178 384.822 5.88235 250 5.88235C115.178 5.88235 5.88235 115.178 5.88235 250C5.88235 384.822 115.178 494.118 250 494.118ZM250 500C388.071 500 500 388.071 500 250C500 111.929 388.071 0 250 0C111.929 0 0 111.929 0 250C0 388.071 111.929 500 250 500Z" fill="white"/>
</g>
</svg>
