<svg width="402" height="414" viewBox="0 0 402 414" fill="none" xmlns="http://www.w3.org/2000/svg">
<path d="M217 64L219.79 140.303C221.497 186.985 258.455 224.423 304.516 226.13L382 229L304.516 231.87C258.455 233.577 221.497 271.015 219.79 317.697L217 394L214.21 317.697C212.503 271.015 175.545 233.577 129.484 231.87L52 229L129.484 226.13C175.545 224.423 212.503 186.985 214.21 140.303L217 64Z" fill="black"/>
<path d="M298.4 86.1057L263.173 153.6C241.622 194.893 255.159 246.044 294.207 270.863L359.894 312.615L291.375 275.835C250.643 253.971 200.168 267.665 175.659 307.227L135.6 371.894L170.827 304.4C192.378 263.107 178.841 211.956 139.793 187.136L74.1058 145.385L142.625 182.165C183.357 204.029 233.832 190.335 258.341 150.772L298.4 86.1057Z" fill="black"/>
<path d="M357.989 146.5L294.185 187.101C255.149 211.94 241.638 263.098 263.21 304.38L299.5 373.825L258.305 307.25C233.817 267.675 183.348 253.955 142.606 275.797L76.0111 311.5L139.815 270.899C178.851 246.06 192.362 194.902 170.79 153.62L134.5 84.1748L175.695 150.75C200.183 190.325 250.652 204.045 291.394 182.203L357.989 146.5Z" fill="black"/>
<path d="M201 0L204.399 95.7259C206.479 154.291 251.5 201.258 307.61 203.399L402 207L307.61 210.601C251.5 212.742 206.479 259.709 204.399 318.274L201 414L197.601 318.274C195.521 259.709 150.5 212.742 94.39 210.601L0 207L94.39 203.399C150.5 201.258 195.521 154.291 197.601 95.7259L201 0Z" fill="white"/>
<path d="M300.16 27.7326L257.248 112.408C230.994 164.211 247.485 228.383 295.052 259.519L375.071 311.898L291.602 265.756C241.984 238.327 180.495 255.507 150.64 305.14L101.84 386.267L144.752 301.592C171.006 249.788 154.515 185.617 106.948 154.48L26.9289 102.101L110.398 148.243C160.016 175.672 221.505 158.493 251.36 108.86L300.16 27.7326Z" fill="white"/>
<path d="M372.75 103.5L295.025 154.435C247.473 185.598 231.014 249.778 257.293 301.567L301.5 388.69L251.317 305.168C221.486 255.519 160.006 238.307 110.374 265.71L29.2498 310.5L106.975 259.565C154.527 228.402 170.986 164.222 144.707 112.433L100.5 25.3102L150.683 108.832C180.514 158.481 241.994 175.693 291.626 148.29L372.75 103.5Z" fill="white"/>
</svg>
