<?xml version="1.0" encoding="UTF-8" standalone="no"?>
<!-- Created with Inkscape (http://www.inkscape.org/) -->

<svg
   width="500mm"
   height="499.99988mm"
   viewBox="0 0 500 499.99988"
   version="1.1"
   id="svg5"
   sodipodi:docname="Wall.svg"
   inkscape:version="1.1.2 (b8e25be833, 2022-02-05)"
   xmlns:inkscape="http://www.inkscape.org/namespaces/inkscape"
   xmlns:sodipodi="http://sodipodi.sourceforge.net/DTD/sodipodi-0.dtd"
   xmlns="http://www.w3.org/2000/svg"
   xmlns:svg="http://www.w3.org/2000/svg">
  <sodipodi:namedview
     id="namedview7"
     pagecolor="#ffffff"
     bordercolor="#666666"
     borderopacity="1.0"
     inkscape:pageshadow="2"
     inkscape:pageopacity="0.0"
     inkscape:pagecheckerboard="0"
     inkscape:document-units="mm"
     showgrid="false"
     inkscape:zoom="0.18863213"
     inkscape:cx="119.27979"
     inkscape:cy="988.69689"
     inkscape:window-width="1366"
     inkscape:window-height="706"
     inkscape:window-x="-8"
     inkscape:window-y="-8"
     inkscape:window-maximized="1"
     inkscape:current-layer="layer1" />
  <defs
     id="defs2" />
  <g
     inkscape:label="Calque 1"
     inkscape:groupmode="layer"
     id="layer1"
     transform="translate(115.27785,117.12073)">
    <rect
       style="opacity:1;fill:#c2dad9;fill-opacity:1;stroke:none;stroke-width:2.49097;stroke-linecap:butt;stroke-linejoin:miter;stroke-miterlimit:4;stroke-dasharray:none;stroke-opacity:1;paint-order:markers fill stroke"
       id="rect30214"
       width="499.99988"
       height="499.99988"
       x="-115.27773"
       y="-117.12073" />
    <path
       id="path27190-4"
       style="color:#000000;opacity:1;fill:#ffffff;stroke-width:2.5873;-inkscape-stroke:none;paint-order:markers fill stroke"
       d="m -115.27785,-117.12073 v 16.6455 h 42.865771 v -16.6455 z m 44.139918,0 v 16.6455 h 67.5589646 v -16.6455 z m 68.8327827,0 v 16.6455 H 65.253269 v -16.6455 z m 68.8320173,0 v 16.6455 h 67.558752 v -16.6455 z m 68.832892,0 v 16.6455 h 67.55842 v -16.6455 z m 68.83224,0 v 16.6455 h 67.55842 v -16.6455 z m 68.83202,0 v 16.6455 h 67.55874 v -16.6455 z m 68.83289,0 v 16.6455 h 42.86512 v -16.6455 z m -457.13476,17.957062 v 33.214163 h 8.44949 v -33.214163 z m 9.72364,0 v 33.214163 h 67.558961 v -33.214163 z m 68.832232,0 v 33.214163 h 67.558964 v -33.214163 z m 68.832564,0 v 33.214163 h 67.558418 v -33.214163 z m 68.832894,0 v 33.214163 h 67.55842 v -33.214163 z m 68.83202,0 v 33.214163 h 67.55864 v -33.214163 z m 68.83223,0 v 33.214163 h 67.55842 v -33.214163 z m 68.8329,0 v 33.214163 h 67.55776 v -33.214163 z m 68.83201,0 v 33.214163 h 8.44939 v -33.214163 z m -491.55049,34.525721 v 33.213593 h 42.865771 v -33.213593 z m 44.139918,0 v 33.213593 h 67.5589646 v -33.213593 z m 68.8327827,0 v 33.213593 H 65.253269 v -33.213593 z m 68.8320173,0 v 33.213593 h 67.558752 v -33.213593 z m 68.832892,0 v 33.213593 h 67.55842 v -33.213593 z m 68.83224,0 v 33.213593 h 67.55842 v -33.213593 z m 68.83202,0 v 33.213593 h 67.55874 v -33.213593 z m 68.83289,0 v 33.213593 h 42.86512 v -33.213593 z m -457.13476,34.52515 V 3.100792 h 8.44949 v -33.213589 z m 9.72364,0 V 3.100792 h 67.558961 v -33.213589 z m 68.832232,0 V 3.100792 h 67.558964 v -33.213589 z m 68.832564,0 V 3.100792 h 67.558418 v -33.213589 z m 68.832894,0 V 3.100792 h 67.55842 v -33.213589 z m 68.83202,0 V 3.100792 h 67.55864 v -33.213589 z m 68.83223,0 V 3.100792 h 67.55842 v -33.213589 z m 68.8329,0 V 3.100792 h 67.55776 v -33.213589 z m 68.83201,0 V 3.100792 h 8.44939 V -30.112797 Z M -115.27785,4.4123521 V 37.625946 h 42.865771 V 4.4123521 Z m 44.139918,0 V 37.625946 H -3.5789674 V 4.4123521 Z m 68.8327827,0 V 37.625946 H 65.253269 V 4.4123521 Z m 68.8320173,0 V 37.625946 H 134.08562 V 4.4123521 Z m 68.832892,0 V 37.625946 h 67.55842 V 4.4123521 Z m 68.83224,0 V 37.625946 h 67.55842 V 4.4123521 Z m 68.83202,0 V 37.625946 h 67.55874 V 4.4123521 Z m 68.83289,0 V 37.625946 h 42.86512 V 4.4123521 Z M -115.27785,38.937506 v 33.214163 h 8.45004 V 38.937506 Z m 9.72364,0 v 33.214163 h 67.558961 V 38.937506 Z m 68.832779,0 V 72.151669 H 30.837643 V 38.937506 Z m 68.832564,0 V 72.151669 H 99.669551 V 38.937506 Z m 68.832347,0 V 72.151669 H 168.5019 V 38.937506 Z m 68.83257,0 v 33.214163 h 67.55874 V 38.937506 Z m 68.83223,0 V 72.151669 H 306.1667 V 38.937506 Z m 68.83235,0 v 33.214163 h 67.55831 V 38.937506 Z m 68.83256,0 v 33.214163 h 8.44884 V 38.937506 Z M -115.27785,73.46266 v 33.21416 h 42.866318 V 73.46266 Z m 44.140465,0 v 33.21416 H -3.5784204 V 73.46266 Z m 68.8328921,0 v 33.21416 H 65.253925 V 73.46266 Z m 68.8319079,0 v 33.21416 H 134.08616 V 73.46266 Z m 68.832895,0 v 33.21416 h 67.55842 V 73.46266 Z m 68.83224,0 v 33.21416 h 67.55852 V 73.46266 Z m 68.83201,0 v 33.21416 h 67.55875 V 73.46266 Z m 68.8329,0 v 33.21416 h 42.86457 V 73.46266 Z m -457.13531,34.52571 v 33.21359 h 8.45004 v -33.21359 z m 9.72419,0 v 33.21359 h 67.558411 v -33.21359 z m 68.832229,0 v 33.21359 h 67.559074 v -33.21359 z m 68.832564,0 v 33.21359 h 67.558418 v -33.21359 z m 68.832897,0 v 33.21359 h 67.55842 v -33.21359 z m 68.83202,0 v 33.21359 h 67.55874 v -33.21359 z m 68.83223,0 v 33.21359 h 67.55842 v -33.21359 z m 68.83289,0 v 33.21359 h 67.55777 v -33.21359 z m 68.83202,0 v 33.21359 h 8.44884 v -33.21359 z m -491.55104,34.52516 v 33.2136 h 42.866318 v -33.2136 z m 44.140465,0 v 33.2136 h 67.5589646 v -33.2136 z m 68.8328921,0 v 33.2136 H 65.253925 v -33.2136 z m 68.8319079,0 v 33.2136 h 67.558745 v -33.2136 z m 68.832895,0 v 33.2136 h 67.55842 v -33.2136 z m 68.83224,0 v 33.2136 h 67.55852 v -33.2136 z m 68.83201,0 v 33.2136 h 67.55875 v -33.2136 z m 68.8329,0 v 33.2136 h 42.86457 v -33.2136 z m -457.13531,34.52516 v 33.21358 h 8.45004 v -33.21358 z m 9.72419,0 v 33.21358 h 67.558411 v -33.21358 z m 68.832229,0 v 33.21358 h 67.559074 v -33.21358 z m 68.832564,0 v 33.21358 h 67.558418 v -33.21358 z m 68.832897,0 v 33.21358 h 67.55842 v -33.21358 z m 68.83202,0 v 33.21358 h 67.55874 v -33.21358 z m 68.83223,0 v 33.21358 h 67.55842 v -33.21358 z m 68.83289,0 v 33.21358 h 67.55777 v -33.21358 z m 68.83202,0 v 33.21358 h 8.44884 v -33.21358 z m -491.55104,34.52514 V 244.778 h 42.866318 v -33.21417 z m 44.140465,0 V 244.778 h 67.5589646 v -33.21417 z m 68.8328921,0 V 244.778 H 65.253925 v -33.21417 z m 68.8319079,0 V 244.778 h 67.558745 v -33.21417 z m 68.832895,0 V 244.778 h 67.55842 v -33.21417 z m 68.83224,0 V 244.778 h 67.55852 v -33.21417 z m 68.83201,0 V 244.778 h 67.55875 v -33.21417 z m 68.8329,0 V 244.778 h 42.86457 v -33.21417 z m -457.13531,34.52573 v 33.21358 h 8.45059 v -33.21358 z m 9.72419,0 v 33.21358 h 67.558411 v -33.21358 z m 68.832557,0 v 33.21358 H 30.83819 v -33.21358 z m 68.832892,0 v 33.21358 h 67.558418 v -33.21358 z m 68.832241,0 v 33.21358 h 67.55842 v -33.21358 z m 68.83256,0 v 33.21358 h 67.55875 v -33.21358 z m 68.83224,0 v 33.21358 h 67.55853 v -33.21358 z m 68.83234,0 v 33.21358 h 67.55842 v -33.21358 z m 68.83257,0 v 33.21358 h 8.44829 v -33.21358 z m -491.55159,34.52514 v 33.21358 h 42.866865 V 280.6147 Z m 44.140465,0 v 33.21358 H -3.5784204 V 280.6147 Z m 68.8334391,0 v 33.21358 H 65.254472 V 280.6147 Z m 68.8320169,0 v 33.21358 H 134.08671 V 280.6147 Z m 68.832239,0 v 33.21358 h 67.55842 V 280.6147 Z m 68.83289,0 v 33.21358 h 67.55842 V 280.6147 Z m 68.83191,0 v 33.21358 h 67.55875 V 280.6147 Z m 68.83235,0 v 33.21358 h 42.86457 V 280.6147 Z m -457.13531,34.52514 v 33.21361 h 8.45059 v -33.21361 z m 9.72419,0 v 33.21361 h 67.558411 v -33.21361 z m 68.832557,0 v 33.21361 H 30.83819 v -33.21361 z m 68.832892,0 v 33.21361 h 67.558418 v -33.21361 z m 68.832241,0 v 33.21361 h 67.55842 v -33.21361 z m 68.83256,0 v 33.21361 h 67.55875 v -33.21361 z m 68.83224,0 v 33.21361 h 67.55853 v -33.21361 z m 68.83234,0 v 33.21361 h 67.55842 v -33.21361 z m 68.83257,0 v 33.21361 h 8.44829 v -33.21361 z m -491.55159,34.52517 v 33.21414 h 42.865771 v -33.21414 z m 44.139918,0 v 33.21414 h 67.5589646 v -33.21414 z m 68.8327827,0 v 33.21414 H 65.253269 v -33.21414 z m 68.8320173,0 v 33.21414 h 67.558752 v -33.21414 z m 68.832892,0 v 33.21414 h 67.55842 v -33.21414 z m 68.83224,0 v 33.21414 h 67.55842 v -33.21414 z m 68.83202,0 v 33.21414 h 67.55874 v -33.21414 z m 68.83289,0 v 33.21414 h 42.86512 v -33.21414 z" />
    <path
       id="path690"
       style="opacity:1;fill:#000000;stroke-width:0.320089"
       d="m 158.67171,-48.766023 c -0.10721,-0.01209 -0.22886,-0.0083 -0.36692,0.01126 -0.55278,0.07845 -1.13412,0.883552 -2.48397,3.440334 -1.3132,2.487801 -1.98566,3.42961 -2.64073,3.697276 -0.59162,0.241849 -0.77278,0.464945 -0.55508,0.682695 0.21781,0.21775 0.0613,0.839519 -0.47883,1.904271 -0.4412,0.869634 -0.80276,1.702886 -0.80341,1.851761 -7.7e-4,0.148874 -0.26321,0.653022 -0.58396,1.120309 -0.75419,1.099384 -1.68089,3.606492 -1.82234,4.931348 -0.10939,1.018183 -0.81752,3.68948 -1.27414,4.800651 -0.15141,0.368664 -0.0821,0.566859 0.2038,0.580151 0.23904,0.01138 0.13773,0.140681 -0.22503,0.287579 -0.71884,0.290996 -1.18312,1.630771 -2.55562,7.374526 -1.45979,6.108039 -2.39503,12.4609285 -2.60518,17.69745442 -0.19647,4.89682608 -0.53517,6.46039298 -0.95033,4.38496868 -0.1269,-0.6349728 -0.46625,-1.1074145 -0.91948,-1.2797256 -0.50946,-0.1936326 -0.91554,-0.8564797 -1.39547,-2.27751334 -0.37228,-1.1025349 -0.67706,-2.30569356 -0.67706,-2.67326736 0,-0.3675628 -0.22371,-1.4555374 -0.49699,-2.4181759 -0.27327,-0.9626057 -0.64369,-2.4706865 -0.82332,-3.3509272 -0.43945,-2.1517507 -0.90526,-2.7889007 -3.14976,-4.3130847 -2.70724,-1.838437 -3.45059,-3.258381 -3.4972,-6.676842 -0.0252,-1.801386 -0.19188,-2.889758 -0.5158,-3.352176 -0.26365,-0.376599 -0.47949,-1.153705 -0.47949,-1.727346 0,-1.388285 -1.17263,-1.758131 -2.43255,-0.767099 -0.46997,0.369671 -1.04977,0.672077 -1.28793,0.672077 -0.86632,0 -1.96947,2.356331 -2.18422,4.665021 -0.20731,2.226849 -0.81151,6.024843 -1.63122,10.2497208 -0.24231,1.2492694 -0.81271,5.1977447 -1.26714,8.77434686 -0.45444,3.57655794 -0.88765,6.60314504 -0.96336,6.72562594 -0.0766,0.1224589 0.0142,0.7112552 0.19878,1.308486 0.1851,0.5972199 0.31561,2.8495614 0.29078,5.0051514 -0.0252,2.15559 0.0569,4.086228 0.18302,4.289958 0.48113,0.778304 1,-0.731942 1.19352,-3.474732 0.19232,-2.72568 0.22634,-2.821008 1.35729,-3.7704207 0.8464,-0.7106426 1.22623,-1.3352445 1.40465,-2.3112732 0.13686,-0.748122 0.11607,-1.4670022 -0.0481,-1.6304522 -0.60026,-0.6001736 -0.65277,-3.7535736 -0.10502,-6.31427149 0.72793,-3.40307671 2.042,-7.83491151 2.56711,-8.65681081 0.23312,-0.3650139 0.47281,-1.0131906 0.5332,-1.4404076 0.24406,-1.728035 1.04835,-0.679629 2.97778,3.8817101 2.04781,4.8411215 3.80746,8.0524687 4.99769,9.1219443 0.38169,0.3430579 1.08566,1.4296979 1.56416,2.4144236 1.80647,3.7175492 4.18093,7.283802 5.31713,7.985989 l 1.12395,0.695195 1.30357,-0.902765 c 0.71655,-0.496608 1.59676,-1.052257 1.95613,-1.234709 2.0688,-1.050134 2.48035,-3.5183153 1.23038,-7.3739454 -1.36658,-4.21562213 -1.61776,-14.0064636 -0.36757,-14.3333966 0.45028,-0.117766 0.58888,-0.684737 0.76151,-3.117124 0.11596,-1.635303 0.21114,-3.85732 0.21114,-4.937608 0,-1.080278 0.21617,-2.793446 0.48025,-3.807298 0.26409,-1.01384 0.48014,-2.136859 0.48014,-2.495058 0,-0.805986 1.80965,-5.382082 2.38814,-6.03849 0.23313,-0.264576 0.60825,-1.317111 0.83328,-2.339375 0.25763,-1.169316 0.62662,-1.974829 0.99474,-2.171857 0.32185,-0.172246 0.58517,-0.439128 0.58517,-0.593279 0,-0.483847 2.3086,-5.262152 2.92888,-6.062297 0.32557,-0.419852 0.59206,-1.147498 0.59206,-1.617332 0,-0.469833 0.37457,-1.606133 0.83218,-2.524453 0.80998,-1.625357 0.84137,-2.48605 0.0952,-2.570723 z m -65.166459,3.83107 c -0.490645,0.0042 -1.032707,0.02073 -1.638548,0.04376 -2.932604,0.111457 -4.616004,0.339246 -6.050526,0.819601 -1.56744,0.52493 -2.451367,0.626658 -4.184215,0.48139 -2.46723,-0.206834 -3.590846,0.176795 -3.590846,1.225964 0,0.36531 -0.658241,1.313407 -1.462528,2.106217 -0.804067,0.792797 -1.600368,1.805733 -1.769714,2.251241 -0.397658,1.045827 0.108303,2.61856 1.16092,3.607226 0.956348,0.898556 1.017283,0.411593 0.15064,-1.205324 -0.352039,-0.656935 -0.640082,-1.351571 -0.640082,-1.543549 0,-0.581496 1.536152,-1.834053 2.021109,-1.647944 0.509462,0.195494 0.824416,3.853909 1.029644,11.958857 0.06673,2.613893 0.263428,6.350447 0.438244,8.303508 0.174926,1.953065 0.23236,3.897608 0.127557,4.32119 -0.253144,1.023518 -2.11694,3.570662 -3.393493,4.6375555 -0.562957,0.4705491 -1.653426,1.5933119 -2.423799,2.495082 -0.770264,0.9017591 -3.014215,3.3683213 -4.985766,5.4809078 -5.600359,6.0011883 -5.937192,6.4147525 -5.937192,7.2864165 0,0.9630105 0.747072,1.3323018 1.682963,0.8314716 0.372168,-0.199179 2.371507,-1.9630299 4.443048,-3.9198351 8.23048,-7.7747537 10.326744,-9.4794536 10.923067,-8.8831199 0.195273,0.1953283 0.456295,1.6894719 0.580132,3.320307 0.30839,4.0573686 0.893445,9.2947587 1.296682,11.6076182 0.775406,4.4477084 0.918169,5.1124694 1.430365,6.6787494 0.776281,2.373499 1.618091,3.929659 2.436927,4.503151 1.390216,0.973819 1.866202,0.495612 1.836775,-1.845538 -0.0175,-1.306134 -0.02735,-1.318955 -0.51887,-0.613902 C 85.726471,18.428806 85.47081,18.26692 84.954238,16.405783 83.416117,10.865886 82.51217,4.0702568 82.290969,-3.6117063 l -0.178207,-6.1736203 0.765231,-0.8183544 c 0.420632,-0.449994 2.276988,-2.022269 4.125469,-3.494095 5.824075,-4.637245 13.775808,-13.675507 16.145898,-18.352496 1.88721,-3.724334 1.30948,-6.036513 -2.3307,-9.32818 -2.939609,-2.658194 -3.877688,-3.188799 -7.313409,-3.156501 z m 0.73471,3.941093 c 0.561316,-0.03286 0.899134,0.107132 1.541622,0.388858 0.717425,0.314671 1.758337,0.861548 2.313198,1.214706 0.896837,0.57092 0.989277,0.767232 0.833933,1.77174 -0.238485,1.541787 -1.794219,4.575817 -3.087072,6.020396 -0.586149,0.654989 -1.26627,1.576805 -1.5111,2.048685 -0.244831,0.471881 -1.31703,1.768217 -2.382557,2.880756 -1.065417,1.112549 -3.490638,3.715516 -5.389003,5.784079 -1.898365,2.068566 -3.59369,3.761026 -3.767303,3.761026 -0.334426,0 -0.182146,-4.328322 0.405097,-11.506241 0.608575,-7.437305 1.105675,-8.892803 3.439112,-10.075244 0.879989,-0.445929 3.00415,-1.185 4.720697,-1.64171 1.536918,-0.408932 2.321841,-0.614286 2.883376,-0.647051 z m 66.250359,10.124028 c -0.69554,0.0245 -1.32578,0.18886 -1.71676,0.509513 -0.70704,0.580064 -0.72399,0.737548 -0.7264,6.994999 0,3.520976 -0.13478,8.058211 -0.29625,10.082781 -0.16169,2.024554 -0.38901,5.4455066 -0.50585,7.6021253 -0.18849,3.4795452 -0.15479,3.9211041 0.30259,3.9211041 0.3364,0 0.51581,0.2779011 0.51581,0.80021689 0,0.44012583 -0.14418,0.80021685 -0.32009,0.80021685 -0.17602,0 -0.3201,-0.17259557 -0.3201,-0.38384109 0,-0.24140627 -0.11038,-0.27114036 -0.29767,-0.0800786 -0.31441,0.32115665 -0.87671,13.54705155 -0.56383,13.25996055 0.36254,-0.332676 0.54097,-2.143841 0.57007,-5.7828651 0.0284,-3.4815362 0.34996,-5.303258 0.72847,-4.1236525 0.0831,0.2591285 0.22591,6.4972273 0.31758,13.8620056 0.1467,11.781352 0.1094,13.368593 -0.3108,13.207462 -0.39459,-0.151449 -0.46854,0.16252 -0.42632,1.813626 0.0656,2.56106 0.5646,4.320688 1.39099,4.899496 0.98293,0.688501 2.31659,0.571862 2.89464,-0.253199 0.66973,-0.956403 0.62706,-2.217728 -0.13007,-3.853584 -0.88349,-1.908704 -1.27481,-7.041237 -1.49229,-19.576728 l -0.18324,-10.5379573 2.83262,-2.66574087 c 1.55781,-1.46606143 2.99572,-2.66566463 3.19537,-2.66576313 0.19954,-7.66e-5 1.26332,2.12460921 2.36374,4.7213424 2.48233,5.8570036 4.63865,10.2017479 5.23333,10.5435799 0.24855,0.142807 0.90898,1.037477 1.46724,1.98806 1.15304,1.962943 5.26943,8.308393 5.78294,8.914365 0.44196,0.521473 1.3225,0.509144 2.05808,-0.02877 0.84881,-0.620631 0.41374,-2.506186 -0.92156,-3.991753 -1.18597,-1.319655 -2.71468,-4.228323 -4.85328,-9.235072 -0.78886,-1.8470801 -1.78536,-3.8883398 -2.21365,-4.5356416 -0.4284,-0.6473236 -1.15392,-2.0997651 -1.6124,-3.2277899 -0.45827,-1.12809053 -1.18269,-2.56542386 -1.60989,-3.1940297 -0.42708,-0.6285949 -0.77628,-1.4003357 -0.77628,-1.7154755 0,-0.3151617 0.58112,-1.7291502 1.29154,-3.1421431 1.01367,-2.0161968 1.93939,-3.2164784 4.29996,-5.5771882 1.65441,-1.65441 3.75669,-4.13196 4.6718,-5.505888 1.80855,-2.714738 3.73415,-4.898846 4.31943,-4.898846 0.45935,0 3.02209,-3.384854 3.02209,-3.991719 0,-0.244568 -0.32415,-0.490774 -0.72016,-0.547025 -0.48069,-0.06837 -0.6891,-0.288721 -0.62641,-0.662669 0.12307,-0.73242 0,-0.710782 -1.40488,0.24005 -0.6485,0.440111 -1.38726,0.800221 -1.6415,0.800221 -0.25446,1.1e-5 -2.14254,1.631416 -4.19625,3.625362 -2.05382,1.993958 -4.23836,3.97205 -4.85449,4.395577 -2.41461,1.659698 -7.07831,6.168404 -8.41492,8.1353938 -1.66305,2.4475053 -5.44939,6.5699545 -6.03412,6.5699545 -0.64052,0 0.15557,-10.4150823 1.15469,-12.8035693 1.07843,-2.578229 2.16387,-5.272258 2.91696,-7.433918 1.03194,-2.924645 0.76162,-4.732552 -0.94213,-6.303559 -0.71786,-0.662034 -2.05896,-1.009749 -3.21835,-0.969009 z m -64.087909,5.103864 c 0.312109,0 -0.178317,1.086699 -0.79466,1.760471 -0.322065,0.352102 -1.345473,1.518092 -2.274363,2.590712 -0.92878,1.07263 -3.134222,3.233232 -4.900764,4.801318 -3.406731,3.024146 -5.91039,5.060964 -5.91039,4.808837 0,-0.220271 13.661164,-13.961338 13.880177,-13.961338 z m 15.773179,0.320081 c -2.20413,0 -2.75013,0.597862 -3.08598,1.947409 -0.93851,3.772083 -1.04058,7.772159 -1.44404,10.866741 -0.61207,4.6596212 -1.40892,11.4245648 -1.77059,15.0335809 -0.36166,3.6090165 -0.79466,7.3628417 -0.96214,8.3417151 -0.47435,2.773486 -0.37294,4.505874 0.33202,5.662211 0.43682,0.716397 0.8778,1.040288 1.41614,1.040288 1.40914,0 1.84115,-1.462615 2.12679,-7.202017 0.49217,-9.89523885 2.23005,-18.1031935 5.18574,-24.486856 3.00109,-6.481438 3.13663,-7.966733 0.93895,-10.322834 -0.71884,-0.770753 -1.05972,-0.880238 -2.73689,-0.880238 z m -24.255054,4.483105 c 0.319111,0.02429 -0.3318,1.033295 -1.637234,2.491305 -2.104032,2.350217 -4.081163,4.093546 -4.081163,3.598473 0,-0.348896 4.984125,-5.799603 5.521592,-6.038515 0.08642,-0.03818 0.151406,-0.0547 0.196805,-0.05131 z m -6.774953,7.17822 c 0.110382,0.03304 0.121649,0.202056 -0.05142,0.480767 -0.11596,0.187747 -0.364073,0.34134 -0.55136,0.34134 -0.21234,0 -0.188054,-0.183426 0.06454,-0.487648 0.219341,-0.264489 0.427742,-0.36753 0.537577,-0.334459 z m -2.040581,2.163117 c 0.04813,0.0055 0.08861,0.02549 0.121977,0.05886 0.115742,0.115752 -0.276118,0.712447 -0.870909,1.326 -1.303465,1.3448824 -1.889504,1.4671554 -0.992121,0.206924 0.729787,-1.024973 1.405313,-1.633865 1.741053,-1.591693 z m -4.514266,4.6481672 c 0.139153,-0.065857 0.0547,0.1390873 -0.165736,0.5726493 -0.267694,0.5281575 -1.503552,2.0045679 -2.745864,3.280935 -1.242202,1.2763452 -2.42172,2.32064854 -2.62126,2.32064854 -0.414615,0 2.118363,-2.98122014 4.351154,-5.12144034 0.67859,-0.650354 1.042335,-0.9869574 1.181706,-1.0527925 z m 95.315934,5.2139682 c 0.17612,0 0.32009,0.1440321 0.32009,0.3200846 0,0.1760416 -0.14397,0.3200845 -0.32009,0.3200845 -0.17602,0 -0.31999,-0.1440429 -0.31999,-0.3200845 0,-0.1760525 0.14397,-0.3200846 0.31999,-0.3200846 z m -62.27488,0.7408253 c 0.1094,-0.00766 0.163,0.18325083 0.14998,0.55578028 -0.0153,0.43131937 -0.22306,2.15235182 -0.46264,3.82481252 l -0.43573,3.0408634 0.15819,-3.5203722 c 0.0864,-1.93611822 0.29494,-3.65715068 0.46264,-3.82481246 0.0481,-0.048244 0.0919,-0.0732959 0.12756,-0.0761402 z m -0.65824,8.3304573 c 0.11476,-0.022098 0.1956,0.04179 0.1956,0.173799 0,0.1760416 -0.14408,0.4088492 -0.3201,0.5176445 -0.17602,0.1087406 -0.32009,0.053495 -0.32009,-0.1225355 0,-0.1760416 0.14407,-0.4088383 0.32009,-0.5176445 0.0449,-0.027131 0.0864,-0.043978 0.1245,-0.051307 z m 49.68077,7.80032 c -0.0799,0.164369 -0.0864,1.740342 -0.0153,4.574401 0.0831,3.256901 0.2398,6.461805 0.34876,7.121994 0.1094,0.660178 0.26737,1.200325 0.35259,1.200325 0.22623,0 -0.26628,-10.635463 -0.58265,-12.584763 -0.0427,-0.264664 -0.0788,-0.366765 -0.10502,-0.311957 z m -43.55356,4.961382 c -0.65058,0.03041 -1.39415,0.170222 -2.18684,0.422611 -3.53276,1.125039 -11.6487,4.862258 -16.290851,7.502105 -0.474454,0.269827 -2.380806,1.328746 -4.236069,2.353161 -1.855372,1.024404 -3.457709,1.99959 -3.561089,2.166858 -0.103928,0.167279 -0.861611,0.648068 -1.68537,1.068437 -0.823868,0.420347 -1.93009,1.22367 -2.458259,1.784866 -0.528059,0.561195 -1.75243,1.444335 -2.720702,1.962428 -0.968273,0.51806 -2.264627,1.308924 -2.88086,1.757987 -0.924513,0.673809 -1.356084,0.784912 -2.470073,0.635804 -1.245485,-0.166721 -1.412534,-0.09868 -2.16059,0.882134 -0.445902,0.584606 -0.810741,1.397885 -0.810741,1.806756 0,0.532785 -1.088062,1.781453 -3.841255,4.408719 -3.72792,3.557644 -4.269217,4.368286 -3.595878,5.385273 0.392844,0.59338 3.390321,2.332835 3.695319,2.144355 0.156985,-0.09703 0.198446,-0.609964 0.09299,-1.139697 -0.134777,-0.673404 0.01094,-1.28339 0.465703,-2.028088 0.689091,-1.114952 2.380806,-2.69262 2.887642,-2.69262 0.169893,0 0.295153,2.483376 0.294496,5.841633 0,5.299123 -0.06126,5.940386 -0.649052,6.903812 l -0.646973,1.062179 0.690732,0.559532 c 1.075372,0.870767 0.477518,1.544215 -4.428608,4.98639 -4.277311,3.000912 -5.310565,4.012812 -4.978983,4.877004 0.409691,1.067528 3.287816,-0.269685 7.205758,-3.347798 2.55967,-2.011001 2.68493,-1.821033 2.212444,3.350292 -0.205666,2.253173 -0.288042,4.744218 -0.18313,5.535935 0.105021,0.791727 0.03719,2.087939 -0.149983,2.880181 -0.187507,0.79222 -0.492396,3.961099 -0.677167,7.041969 -0.837106,13.962127 -0.859532,14.192267 -1.552343,15.684387 -0.367574,0.79224 -0.672026,1.96117 -0.675636,2.59762 -0.01094,1.34154 0.942346,2.73679 1.999886,2.93519 1.11202,0.20866 1.931294,-0.0738 2.714467,-0.93526 0.900446,-0.99053 0.909526,-2.12448 0.03501,-4.40811 -0.673557,-1.76007 -0.678371,-1.92433 -0.31572,-10.351654 0.442073,-10.273808 0.876379,-17.205002 1.309153,-20.886483 0.175801,-1.49643 0.406738,-3.702452 0.513291,-4.902001 0.162017,-1.826393 0.352586,-2.362733 1.175251,-3.299674 0.540312,-0.615347 1.50038,-1.400664 2.133132,-1.745484 0.632861,-0.344819 1.799142,-1.120093 2.591395,-1.72298 4.57137,-3.478943 15.44499,-10.416045 16.327167,-10.416045 0.234547,0 0.670056,-0.220085 0.967069,-0.488895 0.296903,-0.268799 1.676508,-1.038429 3.065847,-1.710465 2.90514,-1.405248 3.62301,-2.06885 3.1026,-2.868935 -0.19166,-0.294901 -0.67071,-0.495185 -1.07088,-0.448254 -1.69281,0.198577 -9.206517,4.259195 -18.870862,10.198498 -3.673441,2.25757 -6.211013,3.096032 -7.292073,2.410048 -0.327972,-0.208172 -0.312,-0.44646 0.07986,-1.195337 0.431461,-0.82691 0.432227,-0.947553 0.01094,-1.039041 -0.683293,-0.14785 -0.600698,-1.615837 0.290121,-5.177703 1.744553,-6.974844 1.568862,-6.613812 4.672563,-9.617699 1.55453,-1.504569 3.378943,-3.014488 4.054141,-3.35596 0.675417,-0.34145 1.689527,-1.041109 2.253797,-1.554793 1.092109,-0.993817 1.673882,-1.363097 6.579351,-4.169928 1.718408,-0.983216 3.310352,-1.787371 3.538007,-1.787371 0.227436,0 0.982385,-0.413695 1.677274,-0.919623 0.694891,-0.50595 1.623561,-1.029502 2.063671,-1.162835 0.4401,-0.133333 1.16037,-0.487254 1.60037,-0.7871 0.82627,-0.562848 2.19822,-1.15125 5.72857,-2.455689 2.46012,-0.90899 2.2737,-0.899352 2.2737,-0.116256 0,0.472781 0.21322,0.64018 0.81589,0.64018 1.35422,0 2.58833,-0.858919 3.29974,-2.296898 0.58122,-1.175066 0.61404,-1.449609 0.24242,-2.012434 -0.35773,-0.542193 -1.18291,-0.795765 -2.26747,-0.745212 z m 53.86149,31.659512 c -0.2025,-0.0088 -0.42906,0.110425 -0.83284,0.353221 -0.47522,0.285602 -1.00022,0.926822 -1.16661,1.424764 -0.35926,1.075427 -2.98085,5.117491 -4.63559,7.147001 -0.64599,0.792231 -1.50158,1.90854 -1.90121,2.480708 -0.39952,0.572157 -0.90624,1.040288 -1.12591,1.040288 -0.21967,0 -0.7171,-0.565221 -1.10524,-1.255975 -0.38836,-0.690766 -0.81358,-1.302951 -0.94541,-1.360384 -0.13182,-0.05743 -1.1188,-1.184715 -2.19373,-2.505081 -2.41636,-2.968333 -2.75156,-3.268869 -4.80133,-4.296216 -1.9919,-0.998466 -3.26867,-1.045386 -4.39174,-0.161907 -1.5135,1.190447 -1.17689,1.899087 2.68931,5.661577 1.94311,1.890904 4.34798,4.552357 5.34404,5.914163 2.10097,2.871933 1.97757,2.037923 2.05568,13.848265 0.0525,7.808799 -0.13128,9.071076 -1.78678,12.323447 -0.58243,1.144325 -1.16508,2.563433 -1.29417,3.153389 -0.34449,1.574955 0.37075,3.811686 1.39678,4.369337 1.91784,1.042406 4.16704,0.216406 4.98631,-1.831141 0.6205,-1.550855 0.61427,-1.894176 -0.0864,-4.593141 -0.72202,-2.781921 -0.60529,-4.695952 0.72027,-11.821446 0.70605,-3.795177 1.15217,-7.909072 1.26036,-11.622015 l 0.0952,-3.299675 1.39481,-1.981791 c 1.43124,-2.033712 3.20063,-4.275474 5.61895,-7.118252 2.13445,-2.508943 2.60387,-4.343869 1.39164,-5.440913 -0.30675,-0.277649 -0.48517,-0.41829 -0.68767,-0.428223 z m -63.54848,2.163095 c -0.83514,0.01739 -1.64927,0.196893 -2.0175,0.530149 -0.73766,0.667627 -0.92747,1.830495 -0.96586,5.911658 -0.0339,3.660871 -0.439998,9.930902 -0.951538,14.724119 -0.480362,4.501017 -0.594901,9.293589 -0.246362,10.29352 0.168799,0.48394 0.763262,1.172484 1.32108,1.529797 0.55781,0.357334 1.42095,0.651655 1.9186,0.654565 1.15556,0.0066 2.7765,-1.556543 2.7765,-2.678256 0,-1.020805 0.86347,-1.829369 3.4996,-3.278419 2.25238,-1.238034 5.05064,-2.18795 7.47466,-2.536335 0.84247,-0.121103 1.83721,-0.467158 2.21004,-0.768963 l 0.6776,-0.548286 -0.75637,-1.023409 c -0.70889,-0.958558 -0.84859,-1.010882 -2.21003,-0.82773 -0.79926,0.107647 -1.95701,0.347686 -2.57324,0.533912 -1.30412,0.394113 -5.48779,2.480237 -6.88183,3.431586 -1.92802,1.315509 -3.95405,0.511354 -3.51044,-1.39351 0.12646,-0.543353 0.34482,-1.707982 0.48452,-2.588255 1.22655,-7.725274 1.5903,-9.258669 2.88578,-12.163399 0.65911,-1.477997 1.26036,-4.204497 1.26036,-5.715346 0,-1.096715 -1.05721,-2.80648 -2.25314,-3.644143 -0.45137,-0.316158 -1.3074,-0.460682 -2.14243,-0.443255 z m 28.5979,1.766761 c -0.52314,0.0077 -1.22218,0.148255 -1.82857,0.378207 -0.77464,0.293742 -1.94934,0.563197 -2.61076,0.59955 -0.98479,0.05415 -1.41953,0.320008 -2.40061,1.46604 -1.27425,1.488422 -1.6299,2.566025 -2.31877,7.024455 -0.61066,3.952599 -0.57182,7.845905 0.0974,9.795272 0.64861,1.888837 2.18258,3.510034 3.94431,4.168024 1.24001,0.463175 5.39349,0.444578 6.58241,-0.02943 1.36495,-0.544119 2.09244,-3.307267 1.49601,-5.683467 -0.32098,-1.278687 -0.0263,-2.629794 1.29668,-5.949794 0.37435,-0.939819 0.76961,-2.761628 0.87835,-4.048639 0.17044,-2.016897 0.0995,-2.543644 -0.51461,-3.81232 -0.81019,-1.673774 -2.86959,-3.586689 -4.16737,-3.871701 -0.12558,-0.02757 -0.28005,-0.03916 -0.45454,-0.03632 z m 67.34334,1.954289 c -3.96126,0 -7.37817,0.122448 -7.59335,0.27195 -0.21518,0.14948 -1.16278,0.305808 -2.10633,0.347587 -0.94333,0.04179 -1.84924,0.158866 -2.0129,0.26008 -0.16388,0.101192 -1.23291,0.364565 -2.37523,0.585164 -2.77431,0.53575 -7.86958,1.780151 -9.3588,2.285631 -1.30532,0.44309 -1.52116,1.117665 -0.83699,2.618865 0.53724,1.1792 1.10862,1.246786 3.2784,0.389486 2.22207,-0.878053 7.46875,-2.130233 12.2028,-2.912694 8.20214,-1.355713 12.54203,-1.288707 15.40057,-0.613903 1.08347,0.255781 2.35783,1.157682 3.00634,1.964288 0.88786,1.128758 0.65813,2.950151 -0.71579,5.674715 -2.37358,4.706454 -6.42127,8.63829 -18.37759,17.850619 -4.89004,3.767729 -5.54632,4.050925 -6.70002,2.897072 -0.48922,-0.489213 -0.52729,-1.063295 -0.34766,-5.201454 0.16924,-3.901423 0.9884,-9.918551 2.0012,-14.70225 0.1816,-0.857268 0.1083,-1.177735 -0.34832,-1.511046 -0.31824,-0.232731 -0.66612,-0.967846 -0.77322,-1.632968 -0.17668,-1.096256 -0.29723,-1.218813 -1.28727,-1.313486 -2.33508,-0.223322 -3.50388,1.419349 -2.85209,4.00801 0.23991,0.953044 0.28421,2.842745 0.13248,5.646567 -0.12537,2.317618 -0.27382,5.077933 -0.33005,6.134216 -0.0558,1.056293 -0.12548,3.865092 -0.15436,6.241763 -0.046,3.76796 -0.15688,4.599004 -0.86653,6.489931 -0.61941,1.650559 -1.12417,2.415178 -2.11487,3.2009 -0.71589,0.56777 -2.25073,1.906975 -3.41034,2.975838 -1.80275,1.661707 -6.20204,5.491147 -9.76904,8.504257 -0.55048,0.46502 -1.67257,1.1619 -2.49381,1.54792 -2.25664,1.06077 -3.12897,2.00405 -3.12897,3.3847 0,1.53719 0.75353,3.06843 1.84235,3.74355 1.08993,0.67577 1.17733,0.67772 2.48824,0.0556 1.31276,-0.62296 1.75101,-1.76044 1.75101,-4.54316 v -2.07245 l 2.3389,-2.18622 c 1.28629,-1.20243 3.98708,-3.51276 6.00163,-5.13457 2.01454,-1.62183 4.31111,-3.486402 5.10326,-4.143058 0.79225,-0.656622 2.31692,-1.631119 3.38846,-2.165589 1.07154,-0.534492 2.41767,-1.52158 2.9908,-2.193748 2.01991,-2.368619 2.70976,-3.055337 3.84115,-3.819824 0.62848,-0.424614 1.93501,-1.415783 2.90317,-2.203113 0.96839,-0.787319 4.49731,-3.513349 7.84234,-6.05732 6.77627,-5.153713 8.97898,-7.126413 11.1062,-9.947794 2.31867,-3.075378 2.88031,-4.450629 2.97078,-7.276418 0.19561,-3.502114 -0.40433,-4.271119 -1.4972,-5.363995 -0.47511,-0.36555 -1.55541,-0.983927 -2.40072,-1.374135 -1.44262,-0.66602 -1.97779,-0.709571 -8.73863,-0.709571 z m -68.05169,2.400672 c 1.5029,0 1.83995,0.690043 2.03884,4.176798 0.13072,2.292763 0,3.427056 -0.72706,6.521196 -0.4867,2.060131 -1.09167,3.953081 -1.34481,4.206171 -0.94158,0.94159 -3.84957,0.158615 -4.50628,-1.213453 -0.62707,-1.310029 -0.87036,-3.98846 -0.41265,-4.540017 0.30916,-0.372355 0.26266,-0.528585 -0.23444,-0.794605 -0.34033,-0.182146 -0.70965,-0.240586 -0.8208,-0.129406 -0.31671,0.316562 -0.23313,-1.85977 0.12012,-3.130897 0.33081,-1.191431 2.84093,-4.12432 4.05786,-4.741319 0.38464,-0.194956 1.20785,-0.354468 1.82922,-0.354468 z m 25.33973,50.030276 c -0.22919,0.0225 -0.48944,0.0737 -0.77464,0.15442 -0.64139,0.18173 -2.39032,0.65611 -3.88676,1.05466 -3.21792,0.85703 -4.73503,1.52841 -6.83064,3.02209 -1.70298,1.21374 -5.45541,2.47689 -7.04188,2.37067 -0.5565,-0.0372 -1.70813,0.24105 -2.5588,0.6183 -0.851,0.37723 -1.62903,0.68581 -1.72945,0.68581 -0.0995,0 -0.91686,0.34592 -1.81413,0.76835 -0.89728,0.4224 -2.99945,1.3704 -4.67202,2.10683 -1.67246,0.73645 -3.86116,1.76312 -4.86368,2.2819 -1.00284,0.51878 -3.8115,1.73527 -6.24186,2.70326 -4.5181,1.79947 -10.49752,4.92961 -14.14219,7.40331 -1.28278,0.87077 -3.066392,1.69502 -4.801318,2.21813 -2.726391,0.82208 -8.851089,3.68155 -14.763448,6.89256 -5.459564,2.96506 -7.523119,3.89857 -9.378163,4.24306 -1.327641,0.24652 -2.461541,1.63341 -2.463948,3.01272 0,2.04279 2.038722,3.06314 4.05808,2.02808 0.672135,-0.34454 1.771465,-1.18059 2.442506,-1.85801 1.074935,-1.0851 1.875611,-1.65671 5.341525,-3.81423 2.902739,-1.80699 12.97065,-7.13764 21.461056,-11.36254 3.42938,-1.70655 4.11081,-1.61941 5.27261,0.67331 1.01093,1.99497 1.42577,5.11929 1.41614,10.65236 -0.0109,4.95502 -0.49108,15.97705 -0.94782,21.66482 -1.05885,13.18407 -1.29372,21.58924 -0.64839,23.20652 l 0.38344,0.96027 0.63701,-0.78211 c 0.39197,-0.48155 0.56537,-1.03479 0.45203,-1.44039 -0.10064,-0.36222 -0.27677,-1.99548 -0.39022,-3.62976 -0.19232,-2.77055 -0.15928,-3.01488 0.48343,-3.61351 0.85669,-0.79835 0.94683,-3.35078 0.1712,-4.85074 -0.42938,-0.83016 -0.45913,-1.27852 -0.17372,-2.62512 0.18904,-0.8931 0.49798,-4.14428 0.68691,-7.22516 0.36943,-6.02506 0.93545,-12.35163 1.17295,-13.1149 0.12056,-0.38759 0.19352,-0.39421 0.41319,-0.0387 0.45323,0.73342 1.05743,-3.94879 1.06706,-8.27486 0.0131,-5.91843 -0.86697,-9.75362 -2.84706,-12.39971 -1.2271,-1.64004 -1.03073,-2.13868 1.2386,-3.14901 1.10031,-0.48987 4.01705,-1.78872 6.48177,-2.88645 2.46471,-1.09771 6.20981,-2.74559 8.32226,-3.66164 2.11268,-0.91604 5.42959,-2.36917 7.3715,-3.22966 1.9419,-0.86047 4.31866,-1.83945 5.28146,-2.17496 2.4505,-0.85382 6.65156,-2.68732 12.79431,-5.5847 2.0245,-0.95494 4.00502,-1.83737 4.40115,-1.96055 0.39612,-0.12322 0.72027,-0.34948 0.72027,-0.50327 0,-0.41911 -0.41276,-0.60899 -1.10032,-0.54139 z m 23.71037,24.23492 c -0.24352,-0.009 -0.4866,0.0776 -0.70025,0.27131 -0.16727,0.15168 -2.32042,1.33095 -4.78502,2.6201 -2.46483,1.28917 -5.63362,2.95857 -7.042,3.71043 -1.40837,0.75188 -3.3529,1.74995 -4.32128,2.21748 -1.73471,0.83768 -2.10776,1.02424 -5.28147,2.63887 -0.8801,0.44784 -2.82474,1.69736 -4.32118,2.77704 -2.13116,1.53773 -6.38845,4.0055 -6.91006,4.0055 -0.047,0 0,-0.7953 0.0963,-1.76737 0.33093,-3.20585 -1.16661,-5.12732 -3.93413,-5.04893 -0.56832,0.0161 -1.4435,0.22503 -1.94497,0.4645 -0.82485,0.39398 -0.93064,0.63329 -1.1141,2.51323 -0.11148,1.14281 -0.21967,3.37444 -0.24067,4.95889 -0.0208,1.58445 -0.26048,5.04142 -0.532,7.68214 -0.61623,5.99429 -0.84181,17.54693 -0.39689,20.32571 0.53987,3.37189 1.3586,4.39884 4.24613,5.32523 2.76938,0.88849 6.1422,-0.21631 11.39566,-3.73292 3.66918,-2.45608 10.55123,-7.6035 11.08749,-8.29295 0.47785,-0.61424 0.51111,-1.61861 0.0755,-2.26188 -0.2677,-0.39458 -0.65223,-0.13083 -2.15644,1.47979 -1.00656,1.07788 -2.47806,2.26244 -3.27031,2.63262 -0.79214,0.37021 -2.14516,1.25662 -3.00634,1.96992 -2.03817,1.68819 -6.97722,4.73742 -8.60243,5.31087 -2.04167,0.72035 -4.28354,0.59164 -5.17272,-0.29759 -2.02002,-2.01995 -1.85198,-13.03885 0.33519,-21.97865 0.63757,-2.6066 0.95624,-3.1106 2.52259,-4.53252 3.85875,-3.50321 14.78292,-10.16706 17.87863,-11.61515 2.76862,-1.29508 4.21813,-2.51292 8.41678,-4.62754 4.19855,-2.11462 7.98861,-4.12659 8.42237,-4.47126 0.72584,-0.57672 0.75374,-0.69292 0.34635,-1.45415 -0.27722,-0.518 -0.68516,-0.80592 -1.09091,-0.82272 z m -59.99996,12.27279 c -0.60191,0.0139 -1.02035,1.03388 -1.02035,2.59701 0,0.8954 -0.28597,3.65671 -0.63505,6.13609 -0.64927,4.60947 -1.69369,16.56719 -1.64249,18.80276 0.0339,1.48075 0.48671,2.11873 1.50487,2.11873 1.0478,0 1.51383,-1.03781 1.27228,-2.83518 -0.68428,-5.09139 -0.49841,-5.57082 2.04496,-5.26961 1.45148,0.17192 1.72027,0.0862 3.55037,-1.13594 2.70965,-1.8094 2.89279,-1.76581 2.8464,0.67831 -0.0219,1.1003 -0.0153,2.93682 0.0109,4.08117 0.0295,1.21425 -0.16267,2.67342 -0.45947,3.50471 -0.4145,1.16132 -0.46832,2.19583 -0.29373,5.60158 0.1176,2.29746 0.33344,4.50151 0.48004,4.89762 h 6.5e-4 c 0.32929,0.89001 1.27415,0.92984 2.03807,0.0857 0.47019,-0.5195 0.53648,-0.95626 0.36637,-2.4038 -0.14802,-1.25913 -0.0667,-2.10393 0.27885,-2.93332 0.40236,-0.96293 0.41888,-1.354 0.093,-2.25314 -0.33038,-0.91351 -0.30555,-1.33624 0.15622,-2.63634 0.30248,-0.85156 0.55092,-2.17725 0.55344,-2.94584 0,-0.76862 0.20183,-2.04931 0.44371,-2.84642 0.32721,-1.07807 0.43496,-3.57875 0.42019,-9.76274 -0.0131,-5.55335 0.11367,-8.92997 0.38257,-10.17036 0.35357,-1.63028 0.33836,-1.95541 -0.12625,-2.6645 -0.47237,-0.72084 -0.59938,-0.76125 -1.17908,-0.37634 -1.08533,0.7206 -1.52576,2.72537 -1.83612,8.35421 -0.19899,3.6089 -0.43605,5.54478 -0.72092,5.8879 -0.54403,0.65568 -6.03554,3.21093 -7.48516,3.48286 -1.22427,0.22967 -1.24997,0.17834 -1.13467,-2.26438 0.0842,-1.77826 1.84214,-8.54126 2.76009,-10.61673 l 0.75965,-1.71737 -1.34536,-1.56668 c -0.73985,-0.86177 -1.55738,-1.65989 -1.81687,-1.77301 -0.0919,-0.0405 -0.18203,-0.059 -0.26813,-0.0569 z m 46.7219,11.75455 c -0.39776,-0.11088 -1.27775,0.25757 -2.56634,1.12534 -0.93939,0.63256 -2.23848,1.38878 -2.8871,1.68047 -0.64872,0.29168 -1.91969,1.07484 -2.82517,1.74047 -0.90537,0.66565 -2.7067,1.70009 -4.0024,2.29878 -2.17383,1.00443 -7.00195,4.03604 -8.8943,5.58468 -0.44021,0.36021 -0.97199,0.65844 -1.1816,0.66206 -0.71195,0.0134 -0.7649,0.62118 -0.11038,1.27536 0.80768,0.80801 1.01072,0.80873 2.57258,0.012 0.69041,-0.35209 1.45061,-0.64016 1.68997,-0.64016 0.23947,0 0.71917,-0.32412 1.06596,-0.72022 0.34679,-0.3961 1.68428,-1.36838 2.97275,-2.16061 1.28826,-0.79222 3.44338,-2.17087 4.78874,-3.06397 1.34548,-0.89311 3.7986,-2.39914 5.45169,-3.34657 1.88776,-1.08207 3.22612,-2.08528 3.59971,-2.69763 0.63942,-1.04882 0.72399,-1.63891 0.32622,-1.74986 z M 59.457637,197.28836 c -0.823103,-0.0403 -1.621154,0.21159 -2.132475,0.76834 -1.542935,1.68015 -1.20457,4.11101 0.722129,5.18834 1.316592,0.73622 1.46209,1.0232 2.035549,4.01423 0.185538,0.96826 0.759872,3.92112 1.276006,6.56184 0.961162,4.91962 1.46034,8.08454 1.829117,11.59575 0.141998,1.35014 0.454545,2.32586 0.969148,3.02335 0.649271,3.22205 1.474562,6.32721 1.899241,9.38763 1.535058,11.13258 1.971989,12.91548 2.872654,13.12369 1.068809,0.24699 2.911163,10.27719 2.941466,13.49689 0.01094,0.59929 0.03501,1.14509 0.440104,1.65984 0.690294,0.87746 0.790611,1.97835 0.231374,2.53759 -0.290121,0.29013 -0.280384,0.55969 0.04266,1.16284 0.231484,0.4318 0.333332,1.01098 0.227546,1.2866 -0.26682,0.6954 1.099111,1.52606 2.508253,1.52606 1.361773,0 2.590848,-0.73703 2.892674,-1.73549 0.121103,-0.40079 0.597964,-1.13254 1.060276,-1.62607 0.704516,-0.75215 0.880536,-1.32192 1.085874,-3.52101 0.134886,-1.44299 0.253035,-2.8399 0.262662,-3.10398 0.01094,-0.26408 0.289027,-1.20736 0.49885,-2.1281 0.513728,-2.25416 0.553986,-3.55143 1.277209,-8.27481 0.458592,-2.99285 0.933047,-6.23377 1.054806,-7.20203 0.12154,-0.96828 0.445464,-2.19263 0.719394,-2.72078 0.274258,-0.52812 0.68034,-2.32864 0.902853,-4.00112 0.222404,-1.67246 0.737008,-4.02341 1.14287,-5.22458 0.445355,-1.31806 0.673557,-2.5871 0.575756,-3.2009 -0.0897,-0.55934 0.01532,-1.44926 0.229406,-1.97742 l 0.390766,-0.96027 0.288808,1.28035 c 0.159063,0.70422 0.225139,1.52916 0.14692,1.83301 -0.07877,0.30386 -0.01313,1.09611 0.143091,1.76051 0.156875,0.66441 0.507493,4.29004 0.779125,8.05727 0.271523,3.76719 0.628595,7.0801 0.793238,7.36205 0.255223,0.43664 0.306858,0.44153 0.347663,0.0325 0.177989,-1.7855 0.156219,-4.17133 -0.04814,-5.12145 -0.606278,-4.15542 -0.505632,-8.48799 -0.860844,-12.6498 -0.08861,-1.03933 -0.135652,-2.71451 0.220653,-2.71451 0.16519,0 0.395033,0.63134 0.510665,1.4029 0.14878,0.99188 0.111476,1.6232 0.152609,2.07245 0.375122,4.06468 0.598401,7.43162 0.802099,10.28852 0.293949,4.13716 0.662945,8.74644 0.819711,10.24287 0.02626,3.70962 1.028878,7.01753 0.85439,10.30913 -0.07986,0.22763 -0.278306,-0.0593 -0.381905,-0.64955 -0.184662,-1.05292 -0.57138,-2.28087 -0.753307,-3.28281 -0.292418,-1.6098 -0.50246,-1.68138 -0.708345,-0.13501 -0.149108,1.12034 -0.08205,1.80354 0.223279,2.27687 0.239798,0.37184 0.523136,1.66822 0.628923,2.88081 0.225577,2.58853 2.182907,7.09167 3.440972,7.91596 0.426757,0.2797 0.870909,0.93892 0.986432,1.46479 0.115523,0.52584 0.498194,1.32276 0.850999,1.77113 0.448746,0.57067 0.949128,0.81523 1.66721,0.81523 1.991349,0 3.176339,-1.48763 3.767959,-4.72947 0.1839,-1.00788 0.66459,-2.6966 1.06782,-3.7529 0.40324,-1.0563 0.98895,-2.78535 1.30544,-3.84107 1.7428,-5.81335 2.61841,-6.7569 4.0211,-10.1985 0.1863,-0.32768 0.69763,-1.69565 1.13664,-3.04023 0.43868,-1.34453 0.9896,-2.87695 1.22404,-3.40534 0.23422,-0.52835 1.39306,-3.40956 2.57509,-6.4024 1.18204,-2.99283 2.47084,-6.16174 2.86445,-7.04198 0.39361,-0.88025 1.11782,-2.5367 1.60923,-3.68104 1.76414,-4.10862 4.29613,-9.18197 4.78514,-9.58768 0.27404,-0.22746 0.49819,-0.60616 0.49819,-0.84148 0,-0.55399 2.39579,-5.16802 4.01487,-7.73279 0.90756,-1.43745 1.40816,-1.95092 1.78547,-1.83116 0.3819,0.1212 0.66524,-0.18594 1.04277,-1.12968 0.72475,-1.81125 0.67596,-2.56384 -0.16628,-2.56384 -0.37655,0 -0.88513,0.25208 -1.12964,0.56016 -1.83316,2.30968 -6.14537,9.95479 -7.62847,13.5244 -0.58833,1.41626 -1.36385,3.03978 -1.72344,3.6079 -0.35981,0.56813 -1.09222,1.82499 -1.62793,2.79327 -0.53594,0.96827 -1.11881,1.97656 -1.29548,2.24065 -0.17657,0.26406 -0.43869,1.06912 -0.8021,1.68046 -1.71283,2.88118 -2.15468,5.54671 -3.35532,8.08227 -1.00404,2.11259 -1.92199,4.14587 -2.03992,4.51877 -0.11804,0.37289 -0.49885,0.93575 -0.84651,1.25035 -0.34767,0.31456 -0.6321,0.73286 -0.6321,0.92963 0,0.37063 -1.61732,4.73796 -2.37938,6.42491 -1.52926,3.38566 -1.78164,4.01535 -1.78164,4.44501 0,0.26332 -0.16552,0.58063 -0.36714,0.7052 -0.36637,0.22654 -0.30554,-0.33975 0.21836,-2.02932 0.13937,-0.45018 0.0897,-0.7202 -0.13456,-0.7202 -0.19659,0 -0.35696,0.14555 -0.35696,0.32321 0,0.17765 -0.43212,0.7752 -0.96018,1.32788 -0.93348,0.97678 -1.04408,1.56878 -0.99715,3.07585 0.0295,0.93163 -0.18324,1.34843 -0.76338,2.43068 -0.13368,0.24929 -0.48014,0.46861 -0.48014,0.81587 0,0.34721 -0.13324,0.71355 -0.29559,0.81398 -0.16256,0.10042 -0.39033,0.61293 -0.50596,1.13905 -0.228421,1.04031 -0.798817,1.31168 -0.798817,0.38012 0,-0.3169 -0.153483,-0.7292 -0.34088,-0.91652 -0.187288,-0.18733 -0.02516,-0.99533 -0.240017,-1.73174 -0.38289,-1.31213 0.300404,-1.61172 -1.297776,-3.27342 l -1.077889,-1.34412 0.226343,-5.60156 c 0.135761,-3.36082 0.08424,-7.58626 -0.128214,-10.56296 -0.195164,-2.72878 -0.404112,-5.82564 -0.463843,-6.88193 -0.05907,-1.05631 -0.189366,-2.1366 -0.288261,-2.40067 -0.09846,-0.26407 -0.269444,-1.24724 -0.379498,-2.18499 -0.213105,-1.81654 -1.507162,-6.3054 -2.276769,-7.89784 -0.255333,-0.52815 -0.894758,-1.74973 -1.42041,-2.71453 -0.984354,-1.80658 -1.189036,-3.13285 -0.64216,-4.15491 0.1723,-0.32202 0.40805,-1.39261 0.524011,-2.37942 0.207964,-1.76945 0.199321,-1.79424 -0.614592,-1.79424 -0.907885,0 -1.37501,0.50671 -1.237827,1.34163 0.122963,0.74861 -1.514272,3.13962 -2.149868,3.13962 -0.791706,0 -1.44765,1.71786 -0.985448,2.58137 0.216278,0.40415 0.284869,1.17689 0.163767,1.85612 -0.113882,0.64016 -0.264959,1.66823 -0.334973,2.28439 -0.06892,0.61618 -0.55705,2.72475 -1.082812,4.68571 -0.525761,1.96095 -0.692045,3.41131 -0.78722,4.21179 -0.184225,1.55254 -0.611638,3.08267 -0.967179,4.18556 -0.287932,0.88057 -0.523136,2.04987 -0.523136,2.59822 0,1.32567 -0.936,5.39179 -1.29165,5.61157 -0.154687,0.0955 -0.198118,0.39019 -0.09517,0.6552 0.102833,0.26498 -0.04048,0.73091 -0.31572,1.03527 -0.733616,0.8106 -1.259377,3.36829 -1.329063,6.46494 -0.03282,1.49643 -0.387375,3.48098 -0.595229,4.45939 -0.68931,3.24524 -0.755386,6.00676 -1.379167,9.3845 -0.223936,1.21256 -1.445353,1.47884 -1.882941,-0.0956 -1.528056,-5.49827 -0.633408,-12.22279 -0.271961,-16.00448 0.181927,-1.90212 0.129964,-2.1765 -0.560221,-2.97021 -0.585712,-0.67369 -1.152497,-0.92036 -2.466355,-1.0728 -1.697512,-0.19699 -1.708343,-0.20568 -2.45629,-1.89677 -1.276006,-2.88541 -2.728141,-7.25371 -2.771353,-8.76809 -0.04266,-1.47478 -0.712065,-3.1385 -1.046491,-6.50996 -0.144185,-1.45312 -0.623125,-3.25418 -0.306421,-5.4434 0.105021,-0.71642 -0.01094,-1.11015 -0.685153,-1.8205 -0.702766,-0.73349 -0.828901,-1.0869 -0.646427,-1.81114 0.538671,-2.13893 0.03501,-4.79018 -1.571706,-8.27857 -1.731972,-3.7595 -1.98993,-5.31086 -0.949018,-5.71035 0.318892,-0.12239 0.455747,-0.71286 0.455747,-1.96993 0,-1.55732 -0.124165,-1.91906 -0.93589,-2.73075 -0.611639,-0.61155 -1.459903,-0.94387 -2.283115,-0.98404 z m 129.557613,8.49174 c -0.24822,0.0651 -0.38519,0.22418 -0.539,0.51139 -0.37446,0.70001 -1.02581,6.93884 -1.60857,16.33208 -0.24505,3.95199 -0.77497,8.38359 -0.95591,10.44544 -0.32568,3.71325 -1.21201,13.07534 -1.461,18.12257 -0.156,3.16566 -0.11672,4.40123 0.14123,4.40123 0.19736,0 0.35893,-0.1904 0.35893,-0.42323 0,-0.5127 0.81994,-9.32915 1.29975,-13.97705 0.19057,-1.84637 0.40772,-3.41861 0.48321,-3.4941 0.24089,-0.24094 0.14779,3.12329 -0.17055,6.15673 -0.16957,1.61443 -0.47096,5.23856 -0.66962,8.05413 -0.19867,2.81556 -0.42753,5.22634 -0.50826,5.35712 -0.081,0.13074 -0.20829,2.14862 -0.28323,4.48376 -0.15009,4.67313 -0.72136,9.50855 -1.18214,10.00719 -0.18149,0.19632 -0.21015,-1.04109 -0.0755,-3.20091 0.149,-2.37236 0.11553,-3.41656 -0.10283,-3.20091 -0.17799,0.17605 -0.42621,1.89002 -0.55202,3.80858 -0.20479,3.12834 -0.17591,3.46787 0.28509,3.29091 0.40696,-0.15615 0.51373,0.0173 0.51012,0.83274 -0.0109,1.53835 -0.34635,2.61877 -0.66273,2.10685 -0.37392,-0.60509 -0.51318,-0.32108 -0.76698,1.56419 v 6.4e-4 l -0.22634,1.68046 2.35072,-0.007 c 2.54184,-0.007 4.43572,-0.6483 5.52083,-1.86802 0.33541,-0.37692 0.76829,-0.68518 0.9616,-0.68518 0.1933,0 0.73153,-0.39613 1.19603,-0.88026 1.4435,-1.50493 4.44655,-2.84535 9.57891,-4.27557 3.82791,-1.06681 5.50289,-1.37955 7.44643,-1.39164 2.23914,-0.0132 2.57313,-0.0955 3.12077,-0.77021 0.7625,-0.93935 0.77912,-1.5374 0.0536,-1.90992 -2.42292,-1.24342 -8.83894,-0.30015 -16.8817,2.64199 -2.63362,0.96344 -4.00294,2.00403 -5.92537,2.42442 -0.13741,0 -0.34537,-0.3784 -0.46144,-0.84087 -0.32469,-1.294 -0.25774,-7.87068 0.0897,-8.78368 0.16967,-0.44632 0.24406,-1.48818 0.13882,-2.31254 -0.11859,-0.92893 -0.44087,-2.5456 -0.29887,-2.92518 0.27141,-0.72482 0.53495,-5.07868 0.86401,-14.58598 0.28586,-8.25951 0.56099,-11.11057 1.21978,-12.64355 0.83951,-1.95364 1.42085,-4.00976 1.4936,-5.28146 0.1083,-1.89443 0.73307,-5.99071 1.09823,-7.20202 0.45685,-1.51429 0.72902,-5.71042 0.47905,-7.37771 -0.1607,-1.07136 -0.54468,-1.8707 -1.30412,-2.71138 -0.65025,-0.6502 -1.69357,-1.11006 -2.84705,-1.41914 -0.60016,-0.09 -0.95963,-0.11928 -1.20786,-0.0545 z m -23.21589,9.5108 c -0.71896,-0.002 -1.14495,0.19587 -1.97374,0.77023 -1.12428,0.77915 -1.28159,1.04126 -1.28159,2.13557 0,0.69984 0.35554,1.94862 0.80965,2.84456 0.78995,1.55884 0.80155,1.67904 0.48572,5.03078 -0.17788,1.88857 -0.39437,4.44174 -0.48135,5.6741 -0.0875,1.23234 -0.29405,3.89709 -0.46012,5.92167 -0.18324,2.23907 -0.18652,3.79988 -0.0109,3.98486 0.18105,0.18704 0.29428,-0.0896 0.29428,-0.71958 0,-1.22553 0.94694,-6.8786 1.19046,-7.10636 0.35772,-0.3347 -0.18685,13.49138 -0.70594,17.925 -0.3504,3.01757 -0.97243,5.78186 -1.24286,8.72245 -0.18937,2.09526 -1.0012,7.94485 -1.35477,9.76274 -0.22197,1.14169 -1.08774,0.8999 -1.08774,-0.30382 0,-1.77956 -0.65156,-0.53413 -1.02023,1.95055 -0.30369,2.04591 -0.27853,2.36388 0.2294,2.92518 0.37972,0.41932 0.98304,0.62955 1.80735,0.62955 1.25796,0 1.28476,-0.0183 5.05644,-3.45846 2.51689,-2.29565 7.47629,-5.07436 9.54576,-5.34838 3.3994,-0.45018 3.95557,-1.6412 1.17536,-2.51758 -1.65507,-0.52168 -1.88907,-0.52383 -3.56853,-0.0354 -0.9884,0.28731 -2.67815,0.93889 -3.75538,1.4479 -2.25183,1.06399 -4.55091,1.90992 -5.18946,1.90992 -0.35139,0 -0.44033,-0.86754 -0.44033,-4.30997 0,-3.80869 0.0667,-4.34555 0.57149,-4.61568 0.39865,-0.21332 0.58582,-0.72426 0.62017,-1.69172 0.0273,-0.76235 0.19845,-2.7544 0.38005,-4.42685 0.18182,-1.67247 0.5704,-4.98026 0.70397,-7.36207 0.77595,-13.83144 5.50223,-18.39422 5.7266,-24.5275 0,-1.24179 -1.78175,-4.10459 -2.86576,-4.60441 -0.4319,-0.19913 -1.47566,-0.44335 -2.31944,-0.54329 -0.33059,-0.0392 -0.60234,-0.0628 -0.84202,-0.0638 z m -35.55062,11.66201 c -0.20293,0.009 -0.41976,0.0307 -0.65201,0.062 -1.0501,0.14083 -1.43135,0.51759 -2.20446,1.2985 -1.40958,1.42372 -2.32764,3.19185 -3.19581,4.62753 -0.66973,1.10342 -1.77037,3.08193 -2.44568,4.39686 -0.67541,1.31495 -1.46439,2.82737 -1.75363,3.36095 -1.19921,2.21122 -4.49808,10.36032 -6.2993,15.53436 -1.10108,3.16313 -1.05196,3.64922 -2.03435,6.21862 -1.39678,3.65341 -3.00896,10.42878 -2.46701,11.84393 0.19506,0.50765 0.47796,0.55061 2.37753,0.35884 2.67147,-0.26963 4.83742,-1.28496 5.60484,-2.62759 0.55202,-0.96578 0.55432,-1.18724 0.0427,-4.94138 -0.39777,-2.92006 -0.44656,-4.18169 -0.19889,-4.91076 0.86763,-2.55477 0.5681,-2.76156 1.22601,-5.76161 0.24527,-0.63939 11.04637,-6.10136 13.07612,-6.61248 0.93884,-0.23637 1.60496,-0.26365 1.79564,-0.0731 0.34668,0.34684 1.61667,6.65947 1.53407,7.62587 -0.0306,0.35211 0.12756,1.07231 0.35062,1.60046 0.22328,0.52816 0.42938,1.75251 0.45837,2.72077 0.0295,0.96828 0.14878,1.91402 0.26562,2.10183 0.23717,0.38072 0.84717,4.71374 1.07646,7.64778 0.082,1.04893 0.32524,2.01887 0.54032,2.15561 0.61546,0.39101 2.36078,0.29952 2.70877,-0.14193 0.17362,-0.22007 0.40565,-1.72618 0.51526,-3.34718 0.15524,-2.29435 -0.0744,-3.60863 -0.43638,-6.03733 -0.93305,-6.25245 -1.32797,-10.89984 -2.88961,-18.38327 -0.60311,-2.89057 -1.53812,-7.89073 -2.06126,-9.60268 -0.24199,-0.79223 -0.65058,-2.33685 -0.90756,-3.43285 l -0.46778,-1.99305 c -0.17843,-0.7607 -0.43266,-1.27884 -0.71819,-1.94931 -0.58221,-1.36643 -1.42041,-1.80605 -2.84093,-1.73924 z m -1.43485,4.72508 c 0.82759,0.0278 1.71162,3.80501 0.96094,4.55565 -0.43485,0.43486 -0.39919,0.71379 0.33574,2.64075 1.38584,3.633 2.1165,6.09757 1.94245,6.5512 -0.0919,0.23802 -2.59533,1.18486 -5.56349,2.10433 -2.96827,0.91952 -5.57935,1.67037 -5.80285,1.66674 -0.48266,-0.007 -0.30664,-0.87615 0.74959,-3.70292 1.6741,-4.48052 6.21823,-13.1535 7.21385,-13.76885 0.0547,-0.0336 0.1083,-0.0488 0.16377,-0.0468 z m 58.05751,4.38935 c 0.17624,0 0.3202,0.14405 0.3202,0.3201 0,0.17604 -0.14396,0.3201 -0.3202,0.3201 -0.17602,0 -0.31999,-0.14406 -0.31999,-0.3201 0,-0.17605 0.14397,-0.3201 0.31999,-0.3201 z m -24.57428,10.91494 c -0.0503,0 -0.0777,0.0483 -0.0799,0.14441 0,0.16726 -0.14024,1.22971 -0.30379,2.36129 -0.16366,1.13162 -0.21858,2.18542 -0.12198,2.3419 h 6.6e-4 c 0.3027,0.48995 0.43671,0.083 0.72136,-2.19186 0.15863,-1.27008 0.15611,-2.33636 -0.0109,-2.51133 -0.0897,-0.0962 -0.16114,-0.14441 -0.2107,-0.14441 z m -72.417175,1.88864 c -0.289792,0 -0.09846,2.96235 0.247566,3.84109 0.312,0.79139 0.480909,-0.88668 0.246252,-2.45068 -0.114648,-0.76466 -0.336833,-1.39041 -0.493818,-1.39041 z m 71.937585,5.2096 c -0.0405,-0.0305 -0.11028,0.10623 -0.23313,0.39197 -0.15129,0.35211 -0.2852,0.82862 -0.29756,1.05906 -0.0131,0.23085 0.12154,0.33007 0.29756,0.22131 0.17602,-0.10874 0.30992,-0.5853 0.29756,-1.05904 -0.0109,-0.38455 -0.023,-0.58269 -0.0645,-0.6133 z m -0.32677,2.62949 c -0.058,-0.0484 -0.1385,-0.0513 -0.22645,0.003 -0.17602,0.10874 -0.3201,0.47729 -0.3201,0.81898 0,0.33533 0.20053,0.59182 0.46713,0.42136 0.41614,-0.26639 0.26353,-0.70351 0.14681,-1.09905 0,-0.12804 -0.0109,-0.0962 -0.0678,-0.14442 z m -86.991917,13.41938 c 0.141013,-0.0139 0.335411,0.007 0.581226,0.0657 1.282351,0.30648 1.433319,0.44804 1.016626,0.95027 -0.481347,0.58011 -0.77289,0.56939 -1.393499,-0.0513 -0.571818,-0.57181 -0.62761,-0.92348 -0.204353,-0.96465 z"
       sodipodi:nodetypes="scscsscccscccssscscccccssssssccccsssccccscccccccscssscccssscssccsssssssssccssssssssssscscccccscsssscscssssssssccccsssssscscsccsscccsssssccsccsscsssssssssccsscsssssssssscscsscscssssssssscssscsssssssssssssscccccssssssssscscscssscsssssssssscssccccssscsssscssssscsscssssssccsssssssssscsssscssssssssssssssssscssccsssssscssscssscccsssscsssscssscssssscsscsssssssssscsssssscscsccsssscssssccssssssssccssssssssscsssssssssssssssssscssssscssccscsssssscsssssssssssssssssscssscsssssssssssssssssssssssssscscsccssssscssssssssccccssssssssccssssssssssssssccssssccsssscscssssscccssssccsssscccsssssssssssscssssssssssscssssscssssssssssssssssssccssscsssscsssssssscsssssssscssssssssssssssssssssssssssssssscsccccsssscsssccssssssssccscssssscsssccssscsssssssssssscsscscscsssscsssscsssssssssssssssssssssscssssssssscscccssssssssssssscsscssccss" />
  </g>
</svg>
