<svg width="313" height="312" viewBox="0 0 313 312" fill="none" xmlns="http://www.w3.org/2000/svg">
<path d="M0 150L69.5978 152.537C112.178 154.088 146.326 187.686 147.882 229.56L150.5 300L153.118 229.56C154.674 187.686 188.822 154.088 231.402 152.537L301 150L231.402 147.463C188.822 145.912 154.674 112.314 153.118 70.4403L150.5 0L147.882 70.4403C146.326 112.314 112.178 145.912 69.5978 147.463L0 150Z" fill="black"/>
<path d="M13 162L82.3666 164.537C124.805 166.088 158.839 199.686 160.391 241.56L163 312L165.609 241.56C167.161 199.686 201.195 166.088 243.633 164.537L313 162L243.633 159.463C201.195 157.912 167.161 124.314 165.609 82.4403L163 12L160.391 82.4403C158.839 124.314 124.805 157.912 82.3666 159.463L13 162Z" fill="white"/>
</svg>
